<svg width="250" height="72" xmlns="http://www.w3.org/2000/svg">
<path style="fill:#fff;fill-opacity:.05;fill-rule:evenodd;stroke-width:0" d="M0 0h250v72H0z"/>
<path style="fill:#44bf36;fill-opacity:1;fill-rule:nonzero;stroke:none;stroke-width:0" d="M60.38 48.72h-5.13V30.58h18.47v18.14h-5.13V34.1h-8.21v14.61M76.21 35.55v17.96h4.73v-6.14c1.58 1.71 4.17 1.84 4.79 1.84 4.51 0 7.28-2.88 7.28-7.05 0-4.35-2.74-7.1-7.18-7.1-1.12 0-3.3.18-5.1 2.07h-.09l.03-1.58zm4.51 6.56c0-3.68 2.27-4.4 3.7-4.4 1.4 0 3.67.73 3.67 4.4 0 2.28-.96 4.46-3.67 4.46-2.77 0-3.7-2.18-3.7-4.46M104.72 47.14c-1.74 1.63-3.42 2.07-5.28 2.07-5.1 0-5.29-3.84-5.29-5.42v-8.24h4.73v7.62c0 2.62.9 3.4 2.64 3.4 2.98 0 3.2-2.67 3.2-3.63v-7.39h4.73v13.16h-4.73v-1.58M116.23 43.17h2.89c2.24 0 2.7.67 2.7 1.56 0 .57-.31 1.35-2.65 1.35h-2.95zm-4.73-7.62v13.16h9.39c3.42 0 5.78-.67 5.78-3.37 0-2.07-1.15-2.98-3.76-3.45v-.08c1.71-.23 3.2-1.3 3.2-3.08 0-3.19-3.73-3.19-5.19-3.19zm4.73 2.64h2.55c1.34 0 2.49.21 2.49 1.29 0 1.19-1.8 1.22-2.58 1.22h-2.45v-2.51M132.65 39.8c0-1.94 2.05-2.1 2.89-2.1.53 0 2.49.03 2.55 1.74v.36c-.09 1.3-1.34 1.04-4.82 1.48-2.86.39-5.88 1.11-5.88 4.12 0 1.09.47 3.81 5.5 3.81 1.93 0 4.04-.49 5.29-1.79h.1l.4 1.29h4.97v-.23c-.9-.18-.96-1.06-.93-2.49l.09-6.01c.03-1.53-.12-4.92-7.24-4.92-1.71 0-7.21.15-7.43 4.74zm5.47 3.47c0 2.64-2.3 3.29-3.45 3.29-.87 0-2.43-.29-2.43-1.53 0-1.48 1.77-1.76 2.77-1.89 1.83-.26 1.68-.18 3.11-.7v.83M143.34 38.2v-2.64h15.17v2.64h-5.22v10.52h-4.73V38.2h-5.22M164.55 34.1h11.78v-3.52h-16.92v18.14h10.39c5.04 0 8.27-1.76 8.27-5.47 0-5.8-6.47-5.93-8.27-5.93h-5.25zm0 6.74h4.26c1.25 0 3.73.13 3.73 2.31 0 1.71-1.8 2.05-3.82 2.05h-4.17v-4.36M184.23 39.8c0-1.94 2.05-2.1 2.89-2.1.53 0 2.49.03 2.55 1.74v.36c-.09 1.3-1.34 1.04-4.82 1.48-2.86.39-5.87 1.11-5.87 4.12 0 1.09.47 3.81 5.5 3.81 1.93 0 4.04-.49 5.29-1.79h.09l.41 1.29h4.97v-.23c-.9-.18-.96-1.06-.93-2.49l.09-6.01c.03-1.53-.13-4.92-7.25-4.92-1.71 0-7.21.15-7.43 4.74zm5.47 3.47c0 2.64-2.3 3.29-3.45 3.29-.87 0-2.43-.29-2.43-1.53 0-1.48 1.77-1.76 2.77-1.89 1.84-.26 1.68-.18 3.11-.7v.83M201.15 48.72h-4.73V35.55h4.73v4.95h5.69v-4.95h4.73v13.16h-4.73v-5.57h-5.69v5.57M223.51 35.55h5.25l-6.5 6.17 6.81 7h-5.54l-5.1-5.75h-.09v5.75h-4.73V35.55h4.73v5.29h.09l5.07-5.29"/>
<path style="fill:#101010;fill-opacity:1;fill-rule:nonzero;stroke:none;stroke-width:0" d="M20.93 48.76h11.84V36.93H20.93v11.84"/>
<path style="fill:#44bf36;fill-opacity:1;fill-rule:nonzero;stroke:none;stroke-width:0" d="M44.96 24.75v17.76h-2.42c-1.04-8.79-6.55-14.3-15.34-15.35v-2.42h17.76zm-24.02-6.26v14.73h3.13c8.24 0 12.42 4.18 12.42 12.41v3.13h14.73V18.49H20.94"/>
</svg>